<svg width="22" height="6" viewBox="0 0 22 6" fill="none" xmlns="http://www.w3.org/2000/svg">
<path d="M2.75 4.125C3.37132 4.125 3.875 3.62132 3.875 3C3.875 2.37868 3.37132 1.875 2.75 1.875C2.12868 1.875 1.625 2.37868 1.625 3C1.625 3.62132 2.12868 4.125 2.75 4.125Z" stroke="#A5A7A8" stroke-width="2.25" stroke-linecap="round" stroke-linejoin="round"/>
<path d="M11 4.125C11.6213 4.125 12.125 3.62132 12.125 3C12.125 2.37868 11.6213 1.875 11 1.875C10.3787 1.875 9.875 2.37868 9.875 3C9.875 3.62132 10.3787 4.125 11 4.125Z" stroke="#A5A7A8" stroke-width="2.25" stroke-linecap="round" stroke-linejoin="round"/>
<path d="M19.25 4.125C19.8713 4.125 20.375 3.62132 20.375 3C20.375 2.37868 19.8713 1.875 19.25 1.875C18.6287 1.875 18.125 2.37868 18.125 3C18.125 3.62132 18.6287 4.125 19.25 4.125Z" stroke="#A5A7A8" stroke-width="2.25" stroke-linecap="round" stroke-linejoin="round"/>
</svg>
